<svg id="Layer_1" data-name="Layer 1" xmlns="http://www.w3.org/2000/svg" viewBox="0 0 512 512"><title>microphone</title><path d="M512,256c0,141.38-114.61,256-256,256S0,397.38,0,256,114.61,0,256,0,512,114.62,512,256Z" fill="#404041"/><path d="M28,139.52,139.52,28A257.1,257.1,0,0,0,28,139.52Z" fill="#4d4d4f"/><path d="M179.06,11.77,11.77,179.06a254.14,254.14,0,0,0-6.43,24.69L203.75,5.34A253.94,253.94,0,0,0,179.06,11.77Z" fill="#4d4d4f"/><path d="M231.24,1.2l-230,230Q.27,240.84.07,250.64L250.63.07Q240.84.27,231.24,1.2Z" fill="#4d4d4f"/><path d="M273.44.6.6,273.43q.56,8.39,1.66,16.63L290.05,2.26Q281.83,1.17,273.44.6Z" fill="#4d4d4f"/><path d="M309.94,5.71,5.71,309.95q1.59,7.41,3.6,14.66L324.6,9.31Q317.35,7.3,309.94,5.71Z" fill="#4d4d4f"/><path d="M342.32,14.93,14.94,342.33Q17.32,349,20,355.47L355.46,20Q349,17.31,342.32,14.93Z" fill="#4d4d4f"/><path d="M371.41,27.44l-344,344q3,6,6.39,11.86L383.28,33.83Q377.44,30.48,371.41,27.44Z" fill="#4d4d4f"/><path d="M397.69,42.77,42.77,397.69q3.63,5.46,7.53,10.72L408.42,50.31Q403.16,46.4,397.69,42.77Z" fill="#4d4d4f"/><path d="M421.43,60.64,60.65,421.43q4.18,4.93,8.6,9.65L431.08,69.25Q426.36,64.82,421.43,60.64Z" fill="#4d4d4f"/><path d="M442.75,80.91,80.92,442.75q4.72,4.42,9.65,8.6L451.37,90.58Q447.18,85.64,442.75,80.91Z" fill="#4d4d4f"/><path d="M461.69,103.58,103.58,461.69q5.26,3.91,10.73,7.54L469.23,114.31Q465.59,108.85,461.69,103.58Z" fill="#4d4d4f"/><path d="M478.17,128.72,128.71,478.16q5.84,3.35,11.88,6.4l344-344Q481.51,134.56,478.17,128.72Z" fill="#4d4d4f"/><path d="M492,156.53,156.53,492q6.48,2.73,13.14,5.11L497.06,169.67Q494.68,163,492,156.53Z" fill="#4d4d4f"/><path d="M502.69,187.41,187.4,502.69q7.24,2,14.66,3.6L506.29,202.06Q504.7,194.65,502.69,187.41Z" fill="#4d4d4f"/><path d="M509.74,222,221.94,509.74q8.23,1.09,16.62,1.66L511.4,238.56Q510.83,230.18,509.74,222Z" fill="#4d4d4f"/><path d="M510.81,280.75q.92-9.59,1.13-19.38L261.37,511.93q9.79-.2,19.39-1.13Z" fill="#4d4d4f"/><path d="M332.92,500.23,500.23,332.92a254,254,0,0,0,6.42-24.68L308.23,506.66A254.22,254.22,0,0,0,332.92,500.23Z" fill="#4d4d4f"/><path d="M484,372.49,372.48,484A257.12,257.12,0,0,0,484,372.49Z" fill="#4d4d4f"/><path d="M301.36,169.85h0v76.71a45.54,45.54,0,0,1-.62,6.19h.18c-.07.52-.26,1-.35,1.51-.22,1.18-.52,2.34-.83,3.5a44,44,0,0,1-1.48,4.66c-.44,1.11-.92,2.19-1.45,3.28a45.82,45.82,0,0,1-2.32,4.16,35.24,35.24,0,0,1-2,3c-1,1.28-2,2.46-3,3.65-.8.88-1.6,1.74-2.49,2.56a45.48,45.48,0,0,1-3.73,3.05c-.94.69-1.86,1.41-2.86,2a49.9,49.9,0,0,1-4.44,2.4c-1,.48-2,1-3,1.46a48.69,48.69,0,0,1-5.43,1.66c-.92.25-1.8.6-2.75.77a45.3,45.3,0,0,1-8.77.89c-25,0-45.37-20.13-45.37-44.73h0V169.85a42.25,42.25,0,0,1,.64-6.18h-.21c.07-.53.28-1,.37-1.51.21-1.19.52-2.35.83-3.5a44.77,44.77,0,0,1,1.47-4.65c.44-1.12.94-2.2,1.47-3.28a46,46,0,0,1,2.32-4.17c.62-1,1.27-2,2-3,1-1.27,2-2.46,3.05-3.63.8-.88,1.6-1.75,2.46-2.57,1.19-1.08,2.45-2.06,3.75-3,.94-.7,1.83-1.42,2.84-2.05a48.65,48.65,0,0,1,4.43-2.4c1-.49,2-1,3-1.47a46,46,0,0,1,5.41-1.65c.94-.25,1.82-.6,2.78-.78a45,45,0,0,1,8.75-.88C281,125.14,301.36,145.26,301.36,169.85Zm21,67.34a9.23,9.23,0,0,1,9.3,9.16h-.06A73.57,73.57,0,0,1,309.47,299a75.62,75.62,0,0,1-37.85,20.21v49.62h22a9.08,9.08,0,0,1,9.13,9h0a9.09,9.09,0,0,1-9.13,9H218a9.08,9.08,0,0,1-9.14-9h0a9.07,9.07,0,0,1,9.14-9h22V319.19A75.45,75.45,0,0,1,202.53,299a73.59,73.59,0,0,1-22.13-52.7h0a9.3,9.3,0,0,1,18.61,0h0a55.68,55.68,0,0,0,16.74,39.75A57.35,57.35,0,0,0,256,302.6v0h0v0a57.43,57.43,0,0,0,40.32-16.5,55.77,55.77,0,0,0,16.74-39.75h0A9.21,9.21,0,0,1,322.34,237.19Z" fill="#fff" fill-rule="evenodd"/></svg>