<?xml version="1.0" encoding="iso-8859-1"?>
<!-- Uploaded to: SVG Repo, www.svgrepo.com, Generator: SVG Repo Mixer Tools -->
<!DOCTYPE svg PUBLIC "-//W3C//DTD SVG 1.1//EN" "http://www.w3.org/Graphics/SVG/1.1/DTD/svg11.dtd">
<svg fill="#000000" version="1.1" id="Capa_1" xmlns="http://www.w3.org/2000/svg" xmlns:xlink="http://www.w3.org/1999/xlink" 
	 width="800px" height="800px" viewBox="0 0 51.999 51.999"
	 xml:space="preserve">
<g>
	<path d="M40.521,34.979c-2.983,2.983-6.663,4.853-10.521,5.612v7.408c0,2.209-1.791,4-4,4s-4-1.791-4-4v-7.408
		c-3.857-0.76-7.538-2.629-10.521-5.612c-1.562-1.562-1.562-4.095,0-5.655c1.562-1.562,4.095-1.562,5.657,0
		c4.888,4.888,12.841,4.886,17.729,0c1.562-1.562,4.096-1.562,5.656,0C42.083,30.885,42.083,33.418,40.521,34.979z M26,29.916
		c6.056,0,10.965-5.921,10.965-14.458S32.056,0,26,0c-6.055,0-10.964,6.921-10.964,15.458S19.945,29.916,26,29.916z"/>
</g>
</svg>